# xmcd
#
# Track frame offsets:
#	150
#	11275
#	25866
#	38020
#	51753
#	68811
#	82150
#	93375
#	110224
#	121944
#	134432
#	147017
#	157904
#	171158
#	190837
#	211819
#	225272
#	241769
#	259712
#	273860
#	289070
#	306395
#
# Disc length: 4352 seconds
#
# Revision: 0
# Processed by: cddbd v1.5.2PL0 Copyright (c) Steve Scherf et al.
# Submitted via: EZCDAudioConverter 1.0.6.1
#
DISCID=2710fe16
DTITLE=Lee Dorsey - Night People the Best of Lee Dorsey
DYEAR=1900
DGENRE=blues
TTITLE0=When the bill's paid
TTITLE1=What you want (is what you get)
TTITLE2=Occapella
TTITLE3=Gator tail
TTITLE4=Would you?
TTITLE5=Freedom for the stallion
TTITLE6=If she won't (find someone who will)
TTITLE7=On your way down
TTITLE8=If I were a carpenter
TTITLE9=A place where we can be free
TTITLE10=Honest I do
TTITLE11=Am I that easy to forget
TTITLE12=Before the next teardrop falls
TTITLE13=Night people
TTITLE14=Can I be the one
TTITLE15=Say it again
TTITLE16=God must have blessed America
TTITLE17=Soul mine
TTITLE18=Keep on doing it to me
TTITLE19=Thank you
TTITLE20=Babe
TTITLE21=Draining
EXTD=
EXTT0=
EXTT1=
EXTT2=
EXTT3=
EXTT4=
EXTT5=
EXTT6=
EXTT7=
EXTT8=
EXTT9=
EXTT10=
EXTT11=
EXTT12=
EXTT13=
EXTT14=
EXTT15=
EXTT16=
EXTT17=
EXTT18=
EXTT19=
EXTT20=
EXTT21=
PLAYORDER=
